<svg xmlns="http://www.w3.org/2000/svg" viewBox="0 0 34 34"><defs><style>.cls-1{fill:#547dbf;}.cls-2{fill:none;}.cls-3{fill:#88abda;}</style></defs><title>ic_ac_34px</title><g id="Layer_2" data-name="Layer 2"><g id="icon"><polygon class="cls-1" points="31.17 15.58 25.26 15.58 29.85 10.99 27.85 8.99 21.25 15.58 18.42 15.58 18.42 12.75 25.01 6.15 23.01 4.15 18.42 8.74 18.42 2.83 15.58 2.83 15.58 8.74 10.99 4.15 8.99 6.15 15.58 12.75 15.58 15.58 12.75 15.58 6.15 8.99 4.15 10.99 8.74 15.58 2.83 15.58 2.83 18.42 8.74 18.42 4.15 23.01 6.15 25.01 12.75 18.42 15.58 18.42 15.58 21.25 8.99 27.85 10.99 29.85 15.58 25.26 15.58 31.17 18.42 31.17 18.42 25.26 23.01 29.85 25.01 27.85 18.42 21.25 18.42 18.42 21.25 18.42 27.85 25.01 29.85 23.01 25.26 18.42 31.17 18.42 31.17 15.58"/><rect class="cls-2" width="34" height="34"/><polygon class="cls-1" points="15.58 15.58 12.75 15.58 6.15 8.99 4.15 10.99 8.74 15.58 2.83 15.58 2.83 18.42 8.74 18.42 4.15 23.01 6.15 25.01 12.75 18.42 15.58 18.42 15.58 15.58"/><polygon class="cls-3" points="18.42 15.58 21.25 15.58 27.85 8.99 29.85 10.99 25.26 15.58 31.17 15.58 31.17 18.42 25.26 18.42 29.85 23.01 27.85 25.01 21.25 18.42 18.42 18.42 18.42 15.58"/><polygon class="cls-3" points="18.42 18.42 18.42 21.25 25.01 27.85 23.01 29.85 18.42 25.26 18.42 31.17 15.58 31.17 15.58 25.26 10.99 29.85 8.99 27.85 15.58 21.25 15.58 18.42 18.42 18.42"/></g></g></svg>