<svg xmlns="http://www.w3.org/2000/svg" viewBox="0 0 34 34"><defs><style>.cls-1{fill:none;}.cls-2{fill:#da4336;}.cls-3{fill:#e4594e;}</style></defs><title>ic_couples_favorite_34px</title><g id="Layer_2" data-name="Layer 2"><g id="Layer_1-2" data-name="Layer 1"><path class="cls-1" d="M0,0H34V34H0Z"/><path class="cls-2" d="M27.29,9.59a5.82,5.82,0,0,0-8.23,0L8.77,19.89,17,28.12,27.29,17.83A5.82,5.82,0,0,0,27.29,9.59Z"/><path class="cls-3" d="M6.71,9.59a5.82,5.82,0,0,0,0,8.23l8.23-8.23A5.82,5.82,0,0,0,6.71,9.59ZM17,11.65,14.94,9.59a5.85,5.85,0,0,1,1.49,2.63ZM8.77,19.89l.57-.57a5.67,5.67,0,0,1-2.63-1.49Z"/><path class="cls-3" d="M14.94,9.59,6.71,17.82a5.85,5.85,0,0,0,2.63,1.49l7.09-7.09A5.72,5.72,0,0,0,14.94,9.59Z"/></g></g></svg>