<svg xmlns="http://www.w3.org/2000/svg" viewBox="0 0 34 34"><defs><style>.cls-1{fill:none;}.cls-2{fill:#97d1a3;}.cls-3{fill:#33a851;}.cls-4{fill:#1b4c25;}.cls-5{fill:#53ba6e;}.cls-6{fill:#258943;}.cls-7{fill:#176c37;}</style></defs><title>ic_free_wifi_34px</title><g id="Layer_2" data-name="Layer 2"><g id="icon"><path class="cls-1" d="M0,0H34V34H0Z"/><path class="cls-2" d="M1.42,12.75l2.83,2.83a18,18,0,0,1,25.5,0l2.83-2.83A22.05,22.05,0,0,0,1.42,12.75Z"/><path class="cls-3" d="M12.75,24.08,17,28.33l4.25-4.25A6,6,0,0,0,12.75,24.08Z"/><path class="cls-4" d="M17,22.32v6l4.25-4.25A6,6,0,0,0,17,22.32Z"/><path class="cls-5" d="M7.08,18.42l2.83,2.83a10,10,0,0,1,14.17,0l2.83-2.83A14,14,0,0,0,7.08,18.42Z"/><path class="cls-6" d="M17,6.3v4a18,18,0,0,1,12.75,5.28l2.83-2.83A22,22,0,0,0,17,6.3Z"/><path class="cls-7" d="M17,14.32v4a10,10,0,0,1,7.08,2.93l2.83-2.83A14,14,0,0,0,17,14.32Z"/><rect class="cls-1" width="34" height="34"/></g></g></svg>