<svg xmlns="http://www.w3.org/2000/svg" viewBox="0 0 34 34"><defs><style>.cls-1{fill:#ea7a72;}.cls-2{fill:#df392a;}.cls-3{fill:#901a1c;}.cls-4{fill:#e4594e;}.cls-5{fill:#b62825;}.cls-6{fill:none;}</style></defs><title>ic_lux_vibe_34px</title><g id="Layer_2" data-name="Layer 2"><g id="Layer_1-2" data-name="Layer 1"><polygon class="cls-1" points="30.16 14.07 3.54 14.06 7.98 5.93 25.78 5.93 30.16 14.07"/><polygon class="cls-2" points="17.02 31.09 3.54 14.06 30.14 14.06 17.02 31.09"/><polygon class="cls-3" points="17.03 31.1 3.55 14.07 12.38 14.06 17.03 31.1"/><polygon class="cls-4" points="17.02 31.09 30.14 14.07 21.32 14.09 17.02 31.09"/><polygon class="cls-5" points="7.96 5.92 10.18 9.98 12.39 14.05 7.96 14.05 3.55 14.06 5.75 9.98 7.96 5.92"/><polygon class="cls-5" points="16.82 5.92 19.04 9.98 21.25 14.05 16.82 14.05 12.4 14.05 14.61 9.98 16.82 5.92"/><polygon class="cls-5" points="25.72 5.92 27.93 9.98 30.15 14.06 25.72 14.05 21.3 14.05 23.51 9.98 25.72 5.92"/><polygon class="cls-3" points="7.96 5.92 16.82 5.92 12.4 14.05 7.96 5.92"/><rect class="cls-6" width="34" height="34"/></g></g></svg>